<svg version="1.1" id="Layer_1" xmlns="http://www.w3.org/2000/svg" xmlns:xlink="http://www.w3.org/1999/xlink" x="0px" y="0px"
	 width="100%" viewBox="0 0 512 512" enable-background="new 0 0 512 512" xml:space="preserve">
<path fill="#02569D" opacity="1.000000" stroke="none" 
	d="
M234.000000,1.000000 
	C249.020889,1.000000 264.041779,1.000000 279.709839,1.388691 
	C285.606171,2.203019 290.938141,2.181443 296.089691,3.134712 
	C314.569611,6.554315 332.743469,11.078283 350.343292,17.907280 
	C367.974884,24.748613 384.622467,33.420597 400.266449,43.908817 
	C417.609833,55.536392 433.422607,69.123222 447.183228,84.849068 
	C455.561340,94.423691 463.705475,104.331581 470.806885,114.863686 
	C480.592560,129.376785 488.734161,144.877213 495.115662,161.290680 
	C502.847717,181.177795 508.783020,201.461426 511.041260,222.745819 
	C511.442078,226.523956 512.334534,230.249939 513.000000,234.000000 
	C513.000000,249.020889 513.000000,264.041779 512.611328,279.709839 
	C511.796997,285.606110 511.818604,290.937988 510.865326,296.089478 
	C507.445740,314.569427 502.910309,332.739166 496.095978,350.344360 
	C489.267975,367.984894 480.540283,384.610046 470.076202,400.255829 
	C458.472321,417.605804 444.896362,433.438416 429.152924,447.184845 
	C419.568817,455.553253 409.668701,463.705475 399.136505,470.806824 
	C384.623352,480.592438 369.132233,488.756744 352.707123,495.109802 
	C332.813843,502.804260 312.543457,508.801117 291.254211,511.041656 
	C287.475952,511.439270 283.750061,512.334534 280.000000,513.000000 
	C264.979095,513.000000 249.958206,513.000000 234.290161,512.611328 
	C224.577469,511.065918 215.310150,510.731293 206.491913,508.566925 
	C191.935699,504.994263 177.494110,500.747894 163.325485,495.855072 
	C145.645523,489.749695 129.340347,480.571838 113.861099,470.187103 
	C95.993988,458.200439 79.751831,444.116333 65.578194,427.904755 
	C57.549435,418.721527 49.680237,409.197235 43.214928,398.899963 
	C35.236427,386.192627 28.317894,372.750183 21.803728,359.210510 
	C13.570026,342.096832 8.498008,323.863373 4.969121,305.203156 
	C3.815572,299.103394 2.332416,293.065948 1.000000,287.000000 
	C1.000000,267.979095 1.000000,248.958206 1.377552,229.306915 
	C3.160576,220.685898 4.472371,212.677460 5.987980,204.707809 
	C12.055349,172.803207 24.529688,143.465439 42.232754,116.377472 
	C52.881618,100.083336 65.366447,85.267906 79.527504,71.789558 
	C90.834572,61.027615 102.565025,50.816799 115.881744,42.770725 
	C128.323578,35.253258 141.168869,28.276320 154.319870,22.088579 
	C175.989471,11.892695 198.886810,5.573437 222.759964,2.960914 
	C226.532990,2.548017 230.254608,1.665427 234.000000,1.000000 
M452.508057,157.006638 
	C445.104797,145.576614 437.915619,134.000702 430.248199,122.750748 
	C418.713989,105.827316 403.471863,92.428322 387.312836,80.225632 
	C373.720856,69.961464 358.808472,61.730827 343.086487,54.941540 
	C317.210602,43.767445 290.130676,38.142303 262.124512,37.162395 
	C252.142685,36.813141 241.996674,37.670490 232.102844,39.156761 
	C219.145813,41.103188 206.162674,43.490128 193.549515,46.983032 
	C167.463440,54.206924 144.193710,67.052025 122.674126,83.531639 
	C106.437241,95.965797 92.365341,110.376625 80.269836,126.631310 
	C70.110062,140.284653 61.716312,155.101486 54.948265,170.842224 
	C43.748898,196.889099 38.170311,224.142639 37.161903,252.305908 
	C36.810493,262.120178 37.683247,272.098846 39.151768,281.828094 
	C41.107681,294.786438 43.441738,307.782990 46.947296,320.392273 
	C54.195274,346.462830 66.986481,369.768616 83.501282,391.262146 
	C95.952705,407.467285 110.291618,421.618713 126.568840,433.698059 
	C140.238052,443.841949 155.038406,452.266571 170.777206,459.033356 
	C196.977280,470.297852 224.394516,476.253998 252.735306,476.728149 
	C266.904816,476.965179 281.170624,474.735718 295.306000,472.938538 
	C315.910645,470.318817 335.166687,463.194092 353.729095,454.052887 
	C368.967651,446.548462 382.864227,437.109131 396.190216,426.556458 
	C410.660645,415.097504 423.011597,401.730133 433.855042,387.032043 
	C443.960602,373.334137 452.377380,358.571198 459.158752,342.807159 
	C470.173676,317.201691 475.396912,290.427704 476.896057,262.817444 
	C477.260986,256.096039 476.739594,249.254379 475.912842,242.556000 
	C474.357758,229.956863 472.878143,217.297180 470.278595,204.890778 
	C466.816620,188.368484 460.504150,172.734283 452.508057,157.006638 
z"/>
<path fill="#FFFFFF" opacity="1.000000" stroke="none" 
	d="
M280.468658,513.000000 
	C283.750061,512.334534 287.475952,511.439270 291.254211,511.041656 
	C312.543457,508.801117 332.813843,502.804260 352.707123,495.109802 
	C369.132233,488.756744 384.623352,480.592438 399.136505,470.806824 
	C409.668701,463.705475 419.568817,455.553253 429.152924,447.184845 
	C444.896362,433.438416 458.472321,417.605804 470.076202,400.255829 
	C480.540283,384.610046 489.267975,367.984894 496.095978,350.344360 
	C502.910309,332.739166 507.445740,314.569427 510.865326,296.089478 
	C511.818604,290.937988 511.796997,285.606110 512.611328,280.178467 
	C513.000000,357.593719 513.000000,435.187408 513.000000,513.000000 
	C435.645905,513.000000 358.291626,513.000000 280.468658,513.000000 
z"/>
<path fill="#FFFFFF" opacity="1.000000" stroke="none" 
	d="
M513.000000,233.531342 
	C512.334534,230.249939 511.442078,226.523956 511.041260,222.745819 
	C508.783020,201.461426 502.847717,181.177795 495.115662,161.290680 
	C488.734161,144.877213 480.592560,129.376785 470.806885,114.863686 
	C463.705475,104.331581 455.561340,94.423691 447.183228,84.849068 
	C433.422607,69.123222 417.609833,55.536392 400.266449,43.908817 
	C384.622467,33.420597 367.974884,24.748613 350.343292,17.907280 
	C332.743469,11.078283 314.569611,6.554315 296.089691,3.134712 
	C290.938141,2.181443 285.606171,2.203019 280.178467,1.388691 
	C357.593719,1.000000 435.187408,1.000000 513.000000,1.000000 
	C513.000000,78.354088 513.000000,155.708389 513.000000,233.531342 
z"/>
<path fill="#FFFFFF" opacity="1.000000" stroke="none" 
	d="
M1.000000,287.468658 
	C2.332416,293.065948 3.815572,299.103394 4.969121,305.203156 
	C8.498008,323.863373 13.570026,342.096832 21.803728,359.210510 
	C28.317894,372.750183 35.236427,386.192627 43.214928,398.899963 
	C49.680237,409.197235 57.549435,418.721527 65.578194,427.904755 
	C79.751831,444.116333 95.993988,458.200439 113.861099,470.187103 
	C129.340347,480.571838 145.645523,489.749695 163.325485,495.855072 
	C177.494110,500.747894 191.935699,504.994263 206.491913,508.566925 
	C215.310150,510.731293 224.577469,511.065918 233.821503,512.611328 
	C156.407410,513.000000 78.814819,513.000000 1.000000,513.000000 
	C1.000000,437.979248 1.000000,362.958282 1.000000,287.468658 
z"/>
<path fill="#FFFFFF" opacity="1.000000" stroke="none" 
	d="
M233.531342,1.000000 
	C230.254608,1.665427 226.532990,2.548017 222.759964,2.960914 
	C198.886810,5.573437 175.989471,11.892695 154.319870,22.088579 
	C141.168869,28.276320 128.323578,35.253258 115.881744,42.770725 
	C102.565025,50.816799 90.834572,61.027615 79.527504,71.789558 
	C65.366447,85.267906 52.881618,100.083336 42.232754,116.377472 
	C24.529688,143.465439 12.055349,172.803207 5.987980,204.707809 
	C4.472371,212.677460 3.160576,220.685898 1.377552,228.838257 
	C1.000000,153.072159 1.000000,77.144325 1.000000,1.000000 
	C78.354095,1.000000 155.708389,1.000000 233.531342,1.000000 
z"/>
<path fill="#FFFFFF" opacity="1.000000" stroke="none" 
	d="
M452.726562,157.319931 
	C460.504150,172.734283 466.816620,188.368484 470.278595,204.890778 
	C472.878143,217.297180 474.357758,229.956863 475.912842,242.556000 
	C476.739594,249.254379 477.260986,256.096039 476.896057,262.817444 
	C475.396912,290.427704 470.173676,317.201691 459.158752,342.807159 
	C452.377380,358.571198 443.960602,373.334137 433.855042,387.032043 
	C423.011597,401.730133 410.660645,415.097504 396.190216,426.556458 
	C382.864227,437.109131 368.967651,446.548462 353.729095,454.052887 
	C335.166687,463.194092 315.910645,470.318817 295.306000,472.938538 
	C281.170624,474.735718 266.904816,476.965179 252.735306,476.728149 
	C224.394516,476.253998 196.977280,470.297852 170.777206,459.033356 
	C155.038406,452.266571 140.238052,443.841949 126.568840,433.698059 
	C110.291618,421.618713 95.952705,407.467285 83.501282,391.262146 
	C66.986481,369.768616 54.195274,346.462830 46.947296,320.392273 
	C43.441738,307.782990 41.107681,294.786438 39.151768,281.828094 
	C37.683247,272.098846 36.810493,262.120178 37.161903,252.305908 
	C38.170311,224.142639 43.748898,196.889099 54.948265,170.842224 
	C61.716312,155.101486 70.110062,140.284653 80.269836,126.631310 
	C92.365341,110.376625 106.437241,95.965797 122.674126,83.531639 
	C144.193710,67.052025 167.463440,54.206924 193.549515,46.983032 
	C206.162674,43.490128 219.145813,41.103188 232.102844,39.156761 
	C241.996674,37.670490 252.142685,36.813141 262.124512,37.162395 
	C290.130676,38.142303 317.210602,43.767445 343.086487,54.941540 
	C358.808472,61.730827 373.720856,69.961464 387.312836,80.225632 
	C403.471863,92.428322 418.713989,105.827316 430.248199,122.750748 
	C437.915619,134.000702 445.104797,145.576614 452.726562,157.319931 
M245.894028,215.045380 
	C244.075653,215.699493 242.198380,216.225922 240.450180,217.032211 
	C235.604248,219.267227 230.833282,223.870560 230.860733,228.826538 
	C231.101471,272.280823 230.949478,315.737213 231.132324,359.192078 
	C231.142715,361.660675 232.648132,364.421509 234.168488,366.535065 
	C242.011108,377.437531 265.533844,377.307770 275.876129,370.491394 
	C281.207062,366.977936 284.173584,362.099304 284.127991,355.021179 
	C283.865417,314.231171 283.992279,273.438629 284.008514,232.646942 
	C284.010925,226.652344 281.898682,222.041153 276.500000,218.838242 
	C267.068176,213.242569 257.083282,213.040894 245.894028,215.045380 
M279.567566,145.047913 
	C268.063446,133.619217 254.902985,131.516663 241.374512,138.946075 
	C227.278015,146.687439 224.605713,164.298645 236.060989,175.492432 
	C247.606293,186.774155 265.474609,186.958725 277.101562,176.201584 
	C286.283020,167.707062 287.931061,156.012070 279.567566,145.047913 
z"/>
<path fill="#02569D" opacity="1.000000" stroke="none" 
	d="
M246.322647,215.024597 
	C257.083282,213.040894 267.068176,213.242569 276.500000,218.838242 
	C281.898682,222.041153 284.010925,226.652344 284.008514,232.646942 
	C283.992279,273.438629 283.865417,314.231171 284.127991,355.021179 
	C284.173584,362.099304 281.207062,366.977936 275.876129,370.491394 
	C265.533844,377.307770 242.011108,377.437531 234.168488,366.535065 
	C232.648132,364.421509 231.142715,361.660675 231.132324,359.192078 
	C230.949478,315.737213 231.101471,272.280823 230.860733,228.826538 
	C230.833282,223.870560 235.604248,219.267227 240.450180,217.032211 
	C242.198380,216.225922 244.075653,215.699493 246.322647,215.024597 
z"/>
<path fill="#02569D" opacity="1.000000" stroke="none" 
	d="
M279.815491,145.318619 
	C287.931061,156.012070 286.283020,167.707062 277.101562,176.201584 
	C265.474609,186.958725 247.606293,186.774155 236.060989,175.492432 
	C224.605713,164.298645 227.278015,146.687439 241.374512,138.946075 
	C254.902985,131.516663 268.063446,133.619217 279.815491,145.318619 
z"/>
</svg>